<svg version="1.0" xmlns="http://www.w3.org/2000/svg"
 width="1000.000000pt" height="1000.000000pt" viewBox="0 0 1000.000000 1000.000000"
 preserveAspectRatio="xMidYMid meet">

<g transform="translate(0.000000,1000.000000) scale(0.100000,-0.100000)"
fill="#fff" stroke="none">
<path d="M4685 9989 c-963 -68 -1834 -380 -2605 -932 -416 -299 -838 -721
-1137 -1137 -501 -700 -813 -1504 -907 -2345 -49 -428 -47 -751 4 -1185 115
-958 506 -1855 1142 -2617 106 -127 464 -485 591 -591 846 -706 1818 -1094
2932 -1172 694 -48 1482 80 2160 352 1251 501 2259 1507 2768 2763 276 680
406 1469 357 2170 -48 689 -204 1289 -489 1881 -353 732 -918 1405 -1581 1881
-690 495 -1482 804 -2310 903 -329 39 -647 49 -925 29z m346 -467 l26 -77 88
-5 89 -5 -72 -52 -71 -52 29 -86 c16 -47 27 -85 24 -85 -3 0 -35 23 -71 50
-36 28 -69 50 -72 50 -4 0 -34 -19 -66 -43 -33 -24 -65 -46 -72 -50 -12 -8
-12 -8 21 98 9 28 16 55 16 61 0 6 -32 34 -71 62 l-71 51 93 3 93 3 26 82 c14
44 27 79 30 76 3 -2 17 -39 31 -81z m-530 -105 c2 -3 44 1 94 8 l89 12 -68
-65 -69 -65 37 -75 c20 -41 35 -76 32 -79 -2 -2 -37 14 -77 37 l-72 41 -26
-24 c-14 -13 -44 -40 -66 -60 -22 -20 -40 -35 -41 -34 -2 1 4 31 11 67 23 106
24 103 -62 152 l-78 43 80 12 c44 6 85 12 91 12 7 1 17 31 23 69 20 115 20
116 61 30 20 -43 38 -79 41 -81z m1099 51 c14 -76 2 -68 135 -86 l60 -7 -77
-43 c-87 -48 -86 -44 -64 -154 15 -78 17 -78 -70 5 l-51 49 -73 -41 c-40 -23
-75 -40 -77 -38 -2 3 12 38 31 79 l34 75 -65 65 -65 65 58 -8 c135 -20 116
-27 160 62 42 88 43 88 64 -23z m564 -177 c3 -5 40 -17 81 -27 41 -10 75 -21
75 -25 0 -3 -34 -19 -76 -35 l-76 -29 4 -92 c3 -51 4 -93 4 -93 -1 0 -28 31
-59 69 l-57 70 -68 -26 c-110 -42 -108 -43 -57 36 26 40 45 78 42 84 -3 7 -28
40 -57 75 -28 34 -50 62 -48 62 1 0 37 -9 78 -20 41 -11 81 -20 87 -20 7 0 34
34 60 75 l48 75 7 -85 c3 -46 9 -88 12 -94z m-2258 94 c22 -35 46 -65 55 -65
8 0 38 6 65 14 115 32 112 35 45 -45 l-60 -72 28 -41 c15 -22 37 -58 50 -78
l22 -37 -87 35 c-47 19 -87 34 -88 32 -2 -3 -94 -117 -108 -133 -5 -5 -6 32
-2 85 l7 95 -82 30 c-44 17 -81 33 -81 36 0 3 37 14 83 25 l82 19 9 87 c5 48
12 85 16 83 4 -3 25 -34 46 -70z m-541 -170 c27 -33 50 -61 51 -63 1 -2 41 13
88 32 47 19 83 29 79 23 -4 -7 -26 -42 -49 -78 l-42 -67 54 -65 c30 -36 54
-67 54 -70 0 -3 -33 3 -72 14 -40 10 -80 19 -88 19 -8 0 -35 -33 -60 -73 -24
-39 -46 -65 -47 -57 -2 8 -7 49 -11 90 l-7 74 -70 18 c-107 27 -107 27 -20 62
l80 33 -2 93 c-2 52 1 90 5 84 4 -5 30 -36 57 -69z m3327 -18 l-4 -92 80 -30
c44 -16 79 -32 77 -36 -2 -3 -40 -14 -83 -24 l-79 -18 -7 -60 c-3 -33 -6 -76
-6 -96 0 -36 0 -36 -50 42 -27 42 -55 77 -62 77 -7 0 -47 -9 -88 -20 -41 -11
-76 -20 -78 -20 -2 0 22 30 52 67 31 37 56 72 56 78 0 6 -20 40 -45 77 -25 37
-45 70 -45 72 0 3 16 -2 35 -10 20 -8 58 -23 85 -34 l49 -19 58 69 c31 39 58
70 59 70 0 0 -1 -42 -4 -93z m-3709 -238 c41 22 77 41 80 41 3 0 -10 -33 -29
-74 -19 -41 -34 -79 -34 -84 0 -6 28 -35 63 -66 l62 -55 -35 0 c-19 0 -59 4
-88 8 l-53 8 -41 -81 -42 -81 -17 84 c-9 46 -22 87 -29 91 -7 4 -46 11 -86 15
-41 4 -72 10 -69 15 3 4 35 25 73 45 37 20 68 38 70 40 1 1 -4 34 -13 74 -23
111 -22 112 49 42 l64 -63 75 41z m4222 -5 c-8 -43 -15 -82 -15 -86 0 -3 35
-26 78 -49 l77 -43 -80 -11 c-44 -6 -85 -14 -91 -18 -6 -4 -17 -43 -25 -87 -7
-44 -15 -80 -18 -80 -3 1 -22 36 -42 79 l-36 78 -94 -12 -93 -12 69 63 69 64
-37 77 c-20 42 -35 79 -33 81 2 2 38 -15 79 -37 l74 -41 64 59 c35 32 65 58
67 56 1 -1 -5 -37 -13 -81z m-4699 -276 c38 28 71 49 73 47 1 -2 -9 -40 -24
-85 -15 -45 -25 -82 -24 -84 2 -1 35 -25 72 -52 l69 -49 -90 -3 -90 -3 -27
-87 -28 -87 -29 87 -29 87 -91 3 -91 3 63 45 c35 25 68 48 73 51 8 6 -14 99
-40 165 -4 11 24 -4 69 -35 l76 -53 68 50z m4984 1 c43 -31 74 -47 82 -43 7 4
40 27 72 51 33 23 61 41 63 40 2 -2 -8 -37 -22 -77 -14 -40 -25 -79 -25 -85 0
-6 31 -33 70 -60 l69 -50 -91 -5 -92 -5 -26 -85 -27 -85 -28 87 -29 87 -90 3
-91 3 72 52 71 52 -13 43 c-7 24 -20 62 -28 86 -8 23 -13 42 -11 42 3 0 36
-23 74 -51z m-5371 -366 c-9 -49 -15 -90 -13 -92 2 -3 39 -23 80 -46 l76 -42
-87 -11 c-49 -7 -90 -13 -92 -16 -2 -2 -11 -44 -20 -92 l-17 -89 -39 84 -39
83 -71 -6 c-40 -4 -81 -9 -92 -13 -12 -3 7 22 47 63 l66 69 -39 78 c-22 42
-37 77 -34 77 3 0 40 -19 81 -41 l75 -42 37 35 c40 38 96 88 98 88 1 0 -7 -39
-17 -87z m5858 -17 c21 -18 23 -17 97 24 42 23 76 39 76 35 0 -3 -16 -41 -35
-82 l-35 -76 67 -64 c40 -38 60 -62 48 -59 -11 2 -53 8 -93 11 l-72 7 -39 -83
-39 -82 -11 54 c-5 30 -13 71 -17 91 -6 36 -7 37 -63 43 -31 4 -71 10 -90 14
l-35 7 73 38 c40 21 75 44 78 52 3 8 -2 50 -10 95 l-15 81 47 -44 c25 -24 56
-52 68 -62z m-6250 -375 l-7 -88 85 -33 c47 -18 85 -34 85 -35 0 -2 -40 -13
-90 -25 l-90 -22 0 -67 c0 -118 -6 -122 -57 -39 -25 40 -47 74 -48 76 -2 2
-39 -6 -83 -17 -44 -12 -84 -21 -87 -21 -4 0 12 24 36 53 25 28 50 59 57 69
11 14 6 27 -33 88 -25 40 -45 73 -43 75 2 2 35 -10 73 -25 39 -16 75 -29 82
-29 6 -1 36 28 65 64 29 36 55 65 57 65 2 0 1 -40 -2 -89z m6662 -41 c5 0 41
14 81 30 40 17 74 29 76 27 2 -1 -17 -34 -41 -72 -25 -39 -45 -73 -45 -77 0
-4 25 -36 56 -72 30 -36 50 -66 43 -66 -7 0 -46 9 -87 21 -40 11 -75 19 -77
17 -1 -2 -25 -37 -51 -78 l-49 -75 -5 87 c-3 47 -8 89 -12 93 -3 4 -42 16 -85
27 -43 11 -79 21 -81 22 -1 2 31 16 70 31 40 16 77 32 83 37 5 4 8 47 6 95
l-3 86 57 -66 c31 -37 60 -67 64 -67z m-7000 -432 c1 -52 -9 -46 123 -79 26
-6 46 -15 43 -19 -2 -4 -39 -20 -81 -35 l-76 -28 7 -91 6 -91 -23 25 c-13 14
-39 45 -59 70 l-37 43 -77 -31 c-43 -18 -80 -30 -83 -28 -2 3 17 37 42 76 l46
71 -55 67 c-30 36 -53 68 -51 70 3 2 39 -6 80 -17 42 -12 80 -21 84 -21 4 0
27 34 52 74 l45 74 7 -42 c3 -22 7 -62 7 -88z m7275 65 c20 -32 39 -64 44 -71
7 -11 24 -9 90 7 44 12 83 21 87 21 3 0 -20 -32 -51 -70 l-57 -70 47 -71 c26
-39 46 -73 44 -75 -2 -2 -40 10 -83 27 l-79 31 -26 -29 c-14 -15 -40 -46 -58
-68 l-33 -40 5 90 5 90 -87 34 -87 35 55 13 c30 8 72 19 93 24 l37 10 0 62 c0
56 8 107 15 107 2 0 20 -26 39 -57z m-3324 -48 c286 -21 386 -40 451 -86 36
-25 59 -87 59 -159 0 -67 -4 -70 -66 -44 -112 47 -354 -50 -354 -142 0 -18 73
-174 186 -399 102 -203 188 -372 190 -374 3 -4 148 104 424 315 211 161 454
347 525 402 39 30 140 107 225 173 85 65 207 159 272 208 l116 90 109 -112
c60 -62 134 -144 165 -182 67 -84 208 -276 232 -316 l16 -28 -127 -137 c-71
-75 -252 -270 -403 -434 -151 -163 -450 -485 -665 -715 -548 -586 -951 -1019
-1304 -1401 -167 -181 -320 -346 -340 -367 l-37 -37 -179 191 c-99 106 -317
339 -485 519 -168 180 -480 515 -695 745 -392 420 -725 778 -1235 1329 -151
163 -276 303 -278 310 -4 16 129 205 237 336 97 119 259 290 274 290 6 0 87
-58 181 -130 179 -136 188 -143 536 -410 118 -91 231 -177 250 -191 19 -15
159 -122 310 -238 151 -116 278 -211 282 -211 10 0 57 88 298 560 248 486 265
516 319 573 48 52 77 65 158 76 100 13 128 12 353 -4z m-4236 -449 c9 -44 18
-81 20 -84 3 -2 44 -9 93 -15 l88 -12 -80 -43 c-44 -24 -81 -45 -82 -45 -1 -1
6 -41 16 -90 10 -48 15 -87 12 -87 -3 0 -33 27 -67 61 l-61 61 -75 -41 c-41
-23 -78 -41 -81 -41 -4 0 11 35 32 79 l40 79 -64 62 c-36 34 -65 63 -65 64 0
1 39 -3 88 -10 48 -6 88 -11 89 -10 1 1 18 37 38 80 20 43 37 77 39 75 2 -2
11 -40 20 -83z m7890 -72 c0 -1 41 4 89 11 l89 12 -65 -65 -65 -65 34 -75 c19
-41 33 -76 31 -79 -2 -2 -37 15 -77 38 l-73 41 -46 -44 c-25 -24 -56 -52 -67
-61 l-22 -18 14 73 c8 40 14 81 14 90 0 11 -27 33 -77 60 l-78 43 60 8 c130
17 122 14 130 55 3 20 11 59 17 87 l11 49 39 -79 c22 -44 41 -81 42 -81z
m-924 -459 c165 -335 269 -677 319 -1050 14 -98 35 -474 28 -482 -4 -3 -64 46
-134 109 -171 152 -350 310 -509 449 -427 374 -504 442 -504 446 0 5 45 59
185 223 50 58 178 208 284 333 l195 227 34 -57 c18 -32 64 -121 102 -198z
m-5713 -57 c142 -167 290 -341 328 -387 l69 -84 -49 -45 c-76 -69 -845 -746
-1018 -895 -43 -38 -81 -66 -84 -63 -9 9 16 348 37 507 45 341 159 715 312
1024 59 119 131 245 139 245 4 0 124 -136 266 -302z m-1358 2 l94 -5 -71 -50
c-40 -27 -72 -54 -72 -60 0 -5 11 -45 24 -87 13 -43 22 -78 20 -78 -2 0 -35
23 -73 51 l-69 50 -68 -50 c-38 -27 -70 -48 -72 -46 -2 2 6 34 18 72 12 37 23
73 25 80 2 6 -29 35 -68 65 l-72 53 91 3 90 3 28 86 28 86 27 -84 27 -84 93
-5z m8176 85 l25 -84 92 -3 92 -3 -72 -54 c-40 -29 -71 -59 -69 -65 22 -60 48
-148 45 -151 -2 -3 -35 18 -72 45 -38 27 -73 47 -80 43 -6 -4 -38 -26 -70 -50
-32 -24 -60 -42 -62 -40 -2 2 7 37 21 77 14 40 25 77 25 82 0 5 -32 32 -72 61
l-72 52 92 3 91 3 28 84 c15 47 28 85 29 85 2 0 14 -38 29 -85z m-8412 -611
c1 -1 41 4 90 11 48 6 87 11 87 9 0 -1 -29 -30 -65 -64 l-64 -62 28 -57 c55
-109 54 -110 -35 -62 l-77 42 -51 -49 c-89 -84 -86 -85 -66 15 10 49 18 89 17
90 -1 0 -38 21 -82 45 l-80 43 60 8 c133 18 122 12 134 67 6 27 14 69 18 92
l6 43 39 -85 c22 -46 40 -85 41 -86z m8567 82 c7 -40 16 -79 20 -86 4 -6 46
-17 94 -23 l88 -12 -69 -37 c-37 -21 -74 -41 -81 -46 -10 -7 -9 -23 3 -81 23
-111 22 -112 -49 -42 l-64 63 -75 -41 c-41 -22 -77 -41 -80 -41 -4 0 9 32 28
72 19 40 35 78 35 84 0 7 -27 37 -60 67 -33 29 -60 56 -60 59 0 2 39 -1 86 -7
l85 -12 40 79 c21 43 41 78 43 78 3 0 10 -33 16 -74z m-6359 -278 c91 -106
203 -238 249 -293 47 -55 99 -116 117 -135 18 -19 33 -41 33 -47 0 -13 -176
-205 -385 -423 -61 -63 -239 -252 -395 -420 -261 -280 -354 -378 -617 -650
l-92 -96 -32 81 c-54 137 -99 274 -138 430 -46 178 -64 281 -91 510 l-20 170
53 49 c72 69 1147 1016 1152 1016 1 0 76 -87 166 -192z m4270 176 c8 -9 111
-101 229 -205 118 -103 301 -263 406 -356 105 -92 269 -235 363 -318 l172
-150 -6 -130 c-7 -148 -43 -375 -86 -550 -52 -209 -165 -530 -184 -523 -9 3
-151 152 -450 473 -99 106 -317 338 -485 516 -555 588 -555 587 -538 607 8 9
50 60 93 112 44 52 82 97 85 100 6 4 189 220 327 382 26 31 51 57 54 57 4 1
13 -6 20 -15z m-6605 -444 c25 -38 50 -70 57 -70 7 0 46 9 87 20 41 11 77 20
78 20 2 0 -20 -28 -48 -62 -29 -35 -54 -68 -57 -75 -3 -6 16 -44 41 -83 25
-39 46 -72 46 -74 0 -2 -37 12 -82 30 l-83 33 -25 -27 c-14 -15 -41 -47 -60
-70 l-36 -43 4 93 4 93 -81 30 c-44 17 -81 32 -81 35 0 3 36 13 80 23 44 10
83 23 86 29 4 7 10 47 12 90 3 43 6 78 8 78 3 0 25 -31 50 -70z m8784 -7 c0
-43 4 -83 8 -89 4 -6 42 -20 85 -29 42 -10 77 -22 77 -25 0 -4 -35 -20 -77
-36 l-78 -29 3 -90 3 -90 -23 26 c-13 14 -39 44 -58 68 l-35 42 -74 -31 c-41
-17 -78 -29 -83 -28 -4 2 13 34 38 72 32 47 44 74 38 82 -5 7 -31 40 -57 74
-27 33 -47 60 -45 60 2 0 37 -9 78 -20 41 -11 80 -20 87 -20 6 0 31 31 55 70
24 38 46 70 51 70 4 0 7 -35 7 -77z m-5818 -465 c95 -112 217 -254 271 -317
54 -63 96 -120 95 -127 -2 -7 -78 -111 -170 -231 -177 -233 -184 -242 -467
-608 -310 -402 -751 -976 -775 -1010 -14 -19 -16 -19 -56 20 -54 52 -189 216
-267 325 -86 120 -179 275 -252 418 l-62 123 58 67 c74 85 347 378 472 507 53
55 148 156 211 225 62 69 199 215 304 325 105 110 251 265 325 343 73 78 135
142 136 142 2 0 81 -91 177 -202z m3248 -63 c134 -143 282 -300 330 -350 48
-49 151 -160 231 -245 125 -135 474 -506 489 -520 3 -3 49 -53 104 -112 80
-88 97 -112 92 -130 -11 -44 -167 -321 -250 -446 -131 -196 -343 -451 -364
-438 -9 5 -179 225 -557 719 -39 51 -110 144 -160 207 -49 63 -139 180 -200
260 -61 80 -202 263 -314 407 -131 170 -200 267 -195 275 14 23 196 240 354
422 85 98 161 187 169 197 8 11 17 18 21 17 4 -2 117 -120 250 -263z m-6236
-14 l57 -69 84 33 84 33 -14 -27 c-8 -14 -28 -46 -44 -71 -17 -25 -31 -49 -31
-55 0 -5 25 -39 55 -75 29 -36 53 -66 52 -67 -1 -1 -34 7 -72 17 -39 11 -78
20 -88 20 -11 0 -35 -27 -65 -72 l-47 -73 -2 40 c-2 22 -5 63 -9 91 -5 50 -7
52 -39 58 -18 4 -57 14 -87 22 l-53 16 80 32 80 32 0 92 c0 51 1 92 1 92 1 0
27 -31 58 -69z m8825 -27 l-4 -87 85 -32 84 -33 -44 -12 c-99 -25 -125 -34
-132 -45 -4 -5 -8 -45 -8 -87 0 -43 -3 -78 -7 -78 -5 1 -27 32 -51 70 -26 42
-50 70 -60 70 -9 0 -50 -9 -90 -19 -82 -22 -82 -27 -5 65 24 28 43 54 43 57 0
4 -20 38 -45 77 -25 39 -45 72 -45 75 0 2 16 -3 35 -11 20 -8 58 -23 84 -34
l49 -19 52 65 c28 35 54 64 57 64 3 0 3 -39 2 -86z m-8772 -526 c46 -45 65
-59 75 -51 7 5 43 26 80 47 l67 36 -25 -57 c-14 -31 -32 -69 -40 -84 -14 -27
-13 -28 54 -90 l67 -62 -70 7 c-38 4 -79 10 -91 12 -18 5 -26 -7 -59 -78 l-39
-83 -13 60 c-28 131 -17 119 -118 130 l-90 10 80 44 c44 24 81 45 82 45 1 1
-7 40 -16 89 -10 48 -16 87 -12 87 3 0 33 -28 68 -62z m8719 -29 c-9 -46 -15
-84 -13 -85 1 -1 38 -21 82 -45 l80 -44 -87 -10 c-47 -5 -90 -13 -94 -17 -4
-4 -15 -45 -24 -90 l-18 -83 -38 83 c-33 70 -42 82 -59 78 -11 -2 -51 -7 -90
-11 l-70 -6 63 58 c34 32 62 64 62 71 0 7 -16 44 -35 82 -19 38 -35 72 -35 74
0 3 35 -15 78 -38 76 -43 77 -43 102 -26 14 10 43 37 64 59 22 22 41 39 44 37
2 -2 -3 -41 -12 -87z m-4814 -236 c91 -104 180 -204 198 -223 18 -19 77 -86
132 -147 55 -62 104 -113 108 -113 9 0 115 114 395 430 115 129 212 236 216
238 7 3 144 -188 670 -938 91 -129 180 -255 197 -280 18 -25 67 -94 109 -155
42 -60 156 -222 253 -360 97 -137 179 -255 183 -261 8 -13 -193 -150 -341
-234 -324 -182 -698 -324 -1014 -384 -493 -94 -1050 -79 -1508 40 -370 97
-697 245 -1052 476 l-137 90 48 66 c26 37 65 92 86 122 21 30 84 120 140 200
56 80 243 348 417 595 173 248 334 477 357 510 23 33 98 139 166 235 194 275
198 280 205 280 3 0 81 -84 172 -187z m-3597 -293 c-14 -40 -25 -80 -25 -87 0
-7 32 -36 70 -64 39 -28 70 -52 70 -53 0 -1 -39 -3 -87 -5 -48 -1 -89 -4 -93
-6 -3 -2 -17 -38 -30 -79 -13 -42 -26 -73 -29 -70 -3 3 -18 40 -32 82 l-26 77
-86 0 c-48 0 -87 2 -87 5 0 3 22 20 48 38 26 17 57 40 70 50 l22 17 -25 75
c-14 41 -24 78 -23 82 2 5 34 -14 71 -42 l69 -49 71 53 c40 29 73 52 74 51 2
-1 -8 -35 -22 -75z m8093 28 c31 -22 62 -45 68 -49 6 -5 38 12 79 41 37 28 70
49 71 47 2 -2 -7 -39 -21 -82 -13 -43 -22 -81 -20 -85 2 -3 33 -26 69 -50 36
-25 66 -48 66 -52 0 -4 -39 -7 -87 -6 l-88 1 -30 -87 -31 -87 -27 86 -28 85
-77 1 c-42 1 -83 1 -89 0 -23 -3 -14 7 57 59 39 29 70 55 70 59 0 4 -11 41
-25 81 -14 40 -25 75 -25 77 0 8 15 0 68 -39z m-7911 -542 c-17 -86 -22 -76
78 -132 l70 -39 -90 -10 c-101 -11 -90 1 -118 -130 l-13 -60 -39 83 c-33 71
-41 83 -59 78 -12 -2 -52 -8 -91 -11 l-70 -7 67 62 68 62 -24 46 c-13 26 -31
64 -39 84 l-16 37 57 -31 c31 -17 68 -38 81 -46 23 -14 26 -12 85 47 33 34 62
57 64 52 2 -5 -3 -43 -11 -85z m7738 34 l59 -60 82 45 83 45 -39 -82 -39 -83
65 -64 64 -63 -67 7 c-38 3 -78 9 -89 12 -18 4 -27 -7 -60 -77 -21 -45 -40
-76 -43 -69 -2 8 -11 48 -20 89 l-16 75 -90 10 -90 10 78 44 c87 48 87 48 63
159 -7 34 -11 62 -7 62 4 0 33 -27 66 -60z m-7490 -498 l-7 -87 81 -30 c45
-17 81 -33 81 -36 0 -3 -37 -14 -82 -25 -55 -13 -84 -25 -85 -34 -1 -8 -5 -50
-8 -93 l-7 -79 -46 76 c-25 42 -51 76 -57 76 -5 0 -44 -9 -85 -20 -41 -10 -76
-18 -78 -16 -1 2 22 33 53 70 l56 66 -46 71 c-25 39 -44 73 -42 76 3 2 39 -10
81 -27 42 -16 78 -30 79 -30 2 0 27 29 55 65 29 36 55 65 58 65 4 0 3 -39 -1
-88z m7265 -1 l36 -42 78 31 c43 17 80 29 82 28 1 -2 -17 -36 -42 -76 l-45
-72 55 -67 c30 -37 53 -69 52 -71 -2 -1 -37 6 -77 18 -40 11 -78 20 -84 20 -6
0 -30 -32 -55 -71 -51 -81 -58 -77 -59 33 l-1 67 -54 15 c-29 9 -71 20 -92 25
l-39 9 30 11 c17 7 55 22 85 35 l55 22 -3 90 -3 89 23 -25 c13 -14 39 -45 58
-69z m-6961 -444 c1 -77 -3 -73 114 -103 l69 -17 -85 -34 -86 -35 6 -91 6 -92
-58 68 c-65 77 -59 76 -162 34 -35 -14 -63 -23 -63 -21 0 3 20 37 45 75 25 39
42 76 38 82 -3 7 -28 37 -55 68 -26 31 -48 59 -48 61 0 3 39 -5 86 -18 l86
-23 46 74 c54 84 60 81 61 -28z m6638 31 c25 -40 47 -74 48 -75 1 -2 40 8 88
21 52 15 84 20 80 13 -3 -7 -28 -37 -55 -68 -26 -31 -48 -60 -48 -64 0 -3 20
-38 46 -77 25 -39 44 -72 42 -73 -2 -2 -34 10 -73 25 -71 29 -105 36 -105 23
0 -5 -23 -33 -51 -63 l-50 -55 4 87 5 86 -84 32 c-46 18 -84 34 -84 35 0 2 38
13 84 25 96 26 96 25 96 133 0 37 2 67 5 67 3 0 26 -33 52 -72z m-6273 -459
l6 -36 92 -13 91 -12 -80 -44 -80 -44 14 -72 c7 -40 12 -78 11 -85 -2 -6 -30
13 -63 43 -32 30 -62 54 -66 54 -3 0 -39 -18 -79 -40 -40 -22 -74 -40 -76 -40
-2 0 12 32 31 72 19 40 35 78 35 85 0 8 -28 41 -62 74 -59 57 -61 60 -33 55
17 -3 58 -8 91 -11 l61 -7 39 83 39 83 11 -55 c7 -30 15 -70 18 -90z m6018
-14 c35 3 77 8 93 11 28 5 24 0 -39 -58 l-68 -63 40 -83 c22 -45 38 -82 36
-82 -3 0 -38 18 -78 40 -40 22 -76 40 -80 40 -4 0 -37 -28 -74 -62 -36 -35
-63 -56 -60 -47 15 41 32 173 23 176 -6 2 -41 21 -79 42 l-70 39 50 7 c27 3
67 10 89 13 43 8 43 8 66 127 l12 60 38 -83 39 -84 62 7z m-5626 -280 l28 -84
90 -3 89 -3 -63 -45 c-35 -25 -68 -48 -73 -51 -5 -4 2 -40 17 -85 14 -44 26
-82 26 -87 0 -4 -31 15 -69 43 -38 27 -73 50 -77 50 -5 0 -38 -23 -74 -50 -36
-26 -66 -47 -67 -46 -1 1 9 40 23 85 14 46 24 84 22 86 -2 2 -34 26 -73 54
l-70 51 92 0 92 0 27 85 c16 47 29 85 30 85 2 0 15 -38 30 -85z m5246 -85 l91
0 -71 -52 c-40 -28 -72 -57 -72 -63 0 -6 11 -45 25 -85 14 -40 24 -75 22 -76
-1 -2 -33 19 -70 47 -37 27 -71 49 -76 49 -4 0 -38 -23 -75 -50 -37 -29 -66
-45 -66 -37 0 7 11 46 24 85 l25 72 -70 53 -70 52 88 5 88 5 27 80 c15 44 28
82 28 85 1 3 15 -34 32 -82 l30 -88 90 0z m-4802 -209 c38 -79 37 -79 158 -62
28 4 52 6 52 5 0 -1 -27 -28 -60 -60 -33 -31 -60 -61 -60 -66 0 -5 15 -43 34
-84 19 -41 33 -74 31 -74 -2 0 -38 19 -80 41 l-77 42 -64 -64 c-35 -35 -64
-58 -64 -52 0 6 7 46 15 89 8 43 12 80 10 83 -3 2 -39 23 -81 46 l-75 42 86
10 c48 6 91 16 95 23 4 7 13 45 20 86 7 40 16 72 19 70 3 -3 22 -36 41 -75z
m4240 -9 c17 -86 13 -83 135 -99 l60 -8 -77 -43 c-43 -24 -78 -49 -78 -55 1
-7 7 -41 15 -77 8 -36 14 -72 15 -80 0 -8 -28 14 -63 48 -34 34 -65 62 -68 62
-4 0 -39 -18 -79 -40 -40 -22 -74 -39 -76 -38 -1 2 14 38 34 82 l36 78 -70 65
c-38 36 -62 62 -53 60 9 -3 52 -9 96 -12 l80 -7 33 76 c18 42 36 73 39 70 3
-3 13 -40 21 -82z m-3724 -291 c2 -2 40 6 86 17 45 12 84 19 86 18 1 -2 -22
-34 -52 -70 l-55 -67 45 -71 c25 -38 44 -72 42 -74 -2 -2 -39 10 -83 27 l-78
31 -26 -34 c-14 -18 -40 -49 -58 -68 l-33 -35 7 90 6 90 -82 30 c-44 17 -81
33 -81 36 0 3 37 14 83 25 l82 20 9 92 8 92 46 -72 c25 -40 47 -75 48 -77z
m3258 -29 c3 -5 41 -17 85 -27 44 -10 78 -21 76 -25 -2 -4 -39 -20 -81 -35
l-77 -28 5 -94 c3 -52 2 -91 -2 -86 -17 20 -105 128 -107 132 -1 2 -37 -11
-80 -28 -43 -17 -81 -31 -85 -31 -4 0 13 31 37 69 25 38 45 74 45 80 0 5 -25
40 -56 76 -63 74 -66 72 55 39 29 -9 59 -13 66 -10 7 2 32 36 56 76 l44 71 7
-85 c3 -47 9 -89 12 -94z m-2795 -79 l51 -62 35 15 c20 8 59 24 87 35 l51 20
-15 -23 c-8 -13 -31 -48 -51 -79 l-36 -56 59 -69 c32 -38 57 -70 56 -71 -1 -2
-41 8 -89 21 l-87 23 -47 -76 -48 -76 -9 91 -8 91 -77 18 c-42 9 -80 20 -85
23 -5 3 27 19 70 37 l79 32 -2 93 c-2 55 1 90 6 84 5 -5 32 -37 60 -71z m2287
-15 l-1 -92 79 -31 c43 -18 75 -34 70 -37 -5 -2 -44 -13 -86 -23 l-77 -19 -5
-60 c-3 -34 -7 -74 -9 -91 -2 -29 -5 -26 -50 43 -29 44 -54 72 -64 72 -10 0
-49 -9 -87 -20 -38 -11 -71 -19 -72 -17 -1 1 22 31 51 67 30 36 55 70 55 75 0
6 -14 30 -31 55 -16 25 -37 57 -44 72 l-15 27 36 -15 c19 -8 57 -23 84 -34
l48 -19 57 69 c32 39 58 70 59 70 2 0 2 -41 2 -92z m-1761 -100 l50 -47 73 41
c40 22 76 38 78 35 3 -3 -11 -38 -31 -77 l-37 -73 64 -64 63 -65 -60 6 c-33 4
-72 9 -88 12 -26 5 -29 2 -64 -76 -22 -50 -39 -76 -43 -68 -4 7 -12 45 -19 85
-14 82 -10 79 -118 89 -40 3 -70 10 -67 15 2 5 36 25 74 45 83 43 81 34 44
193 -5 22 -4 23 13 10 10 -7 40 -35 68 -61z m1235 -13 c-13 -62 -14 -87 -6
-93 6 -5 43 -26 81 -47 l70 -39 -87 -11 c-48 -5 -89 -13 -92 -16 -4 -3 -13
-41 -21 -84 -9 -43 -17 -80 -18 -82 -2 -1 -21 34 -42 78 -36 74 -42 80 -65 76
-14 -3 -53 -9 -88 -13 l-63 -7 65 64 65 64 -39 83 -39 82 67 -36 c37 -21 73
-42 80 -47 10 -8 29 5 75 51 34 34 65 62 68 62 4 0 -1 -38 -11 -85z m-710 -25
c19 -15 41 -30 48 -34 7 -4 40 12 82 43 38 28 72 51 74 51 3 0 -8 -38 -24 -85
l-28 -84 71 -53 71 -53 -91 -3 -91 -3 -17 -62 c-34 -123 -33 -122 -64 -27
l-27 85 -93 5 -92 5 70 50 c39 28 71 57 71 66 0 8 -11 48 -25 88 l-24 73 27
-18 c15 -9 43 -29 62 -44z"/>
</g>
</svg>